<?xml version="1.0" standalone="no"?>
<!DOCTYPE svg PUBLIC "-//W3C//DTD SVG 20010904//EN"
 "http://www.w3.org/TR/2001/REC-SVG-20010904/DTD/svg10.dtd">
<svg version="1.0" xmlns="http://www.w3.org/2000/svg"
 width="300.000000pt" height="300.000000pt" viewBox="0 0 300.000000 300.000000"
 preserveAspectRatio="xMidYMid meet">
<metadata>
Created by potrace 1.11, written by Peter Selinger 2001-2013
</metadata>
<g transform="translate(0.000000,300.000000) scale(0.100000,-0.100000)"
fill="#000000" stroke="none">
<path d="M867 2763 c-3 -5 -1 -280 4 -613 4 -333 11 -848 14 -1145 4 -297 9
-543 12 -547 2 -5 92 -8 200 -8 l196 0 160 101 c184 116 156 118 235 -14 28
-47 54 -80 67 -83 12 -3 106 -2 209 3 l189 8 42 75 c23 41 51 91 62 110 85
148 85 148 72 172 -7 13 -47 82 -91 154 -43 72 -78 136 -78 142 0 6 45 91 99
189 127 228 143 274 149 425 5 131 -12 207 -70 322 -39 76 -122 161 -174 175
-22 6 -124 11 -231 11 l-193 0 0 118 c0 64 -4 122 -8 128 -4 6 -56 40 -117 76
-60 36 -163 98 -228 137 l-117 71 -200 0 c-109 0 -201 -3 -203 -7z m377 -610
c8 -661 7 -654 84 -513 120 220 257 460 278 487 42 55 65 61 232 65 84 2 152
2 152 0 0 -2 -11 -18 -24 -35 -13 -18 -48 -72 -76 -122 -28 -49 -73 -119 -99
-155 -48 -66 -131 -206 -215 -362 -42 -77 -46 -90 -35 -110 44 -82 203 -337
259 -414 37 -51 105 -157 151 -236 46 -79 96 -163 111 -187 15 -25 28 -51 28
-58 0 -10 -35 -13 -161 -13 -142 0 -163 2 -176 18 -15 19 -141 228 -318 527
-65 110 -124 210 -132 223 -8 13 -22 22 -31 20 -15 -3 -16 -37 -13 -401 l3
-397 -164 0 -164 0 -12 983 c-7 540 -12 1044 -12 1120 l0 137 163 0 164 0 7
-577z m832 -344 c21 -12 43 -41 61 -77 24 -48 28 -69 28 -139 0 -80 -1 -83
-60 -197 -33 -64 -64 -115 -68 -113 -8 2 -171 273 -184 303 -7 18 107 210 136
227 34 22 47 21 87 -4z"/>
</g>
</svg>
